<svg width="67" height="105" viewBox="0 0 67 105" fill="none" xmlns="http://www.w3.org/2000/svg">
<path d="M15.728 71.817L15.152 48.057H21.776C26.672 48.057 31.136 47.625 35.168 46.761C39.2 45.897 42.416 44.217 44.816 41.721C47.216 39.225 48.416 35.577 48.416 30.777C48.416 26.169 47.024 22.569 44.24 19.977C41.456 17.289 37.76 15.945 33.152 15.945C28.352 15.945 24.608 17.289 21.92 19.977C19.232 22.569 17.888 26.121 17.888 30.633H0.464C0.368 24.873 1.616 19.737 4.208 15.225C6.8 10.713 10.544 7.16098 15.44 4.56898C20.432 1.97698 26.384 0.680983 33.296 0.680983C39.728 0.680983 45.392 1.88098 50.288 4.28098C55.28 6.68098 59.168 10.137 61.952 14.649C64.832 19.065 66.272 24.489 66.272 30.921C66.272 37.545 64.784 43.017 61.808 47.337C58.928 51.657 54.944 54.873 49.856 56.985C44.864 59.097 39.056 60.201 32.432 60.297L32 71.817H15.728ZM23.936 104.217C20.576 104.217 17.792 103.161 15.584 101.049C13.472 98.937 12.416 96.393 12.416 93.417C12.416 90.345 13.472 87.753 15.584 85.641C17.792 83.529 20.576 82.473 23.936 82.473C27.296 82.473 30.032 83.529 32.144 85.641C34.256 87.753 35.312 90.345 35.312 93.417C35.312 96.393 34.256 98.937 32.144 101.049C30.032 103.161 27.296 104.217 23.936 104.217Z" fill="black"/>
</svg>
