<svg width="65" height="65" viewBox="0 0 65 65" fill="none" xmlns="http://www.w3.org/2000/svg">
<path fill-rule="evenodd" clip-rule="evenodd" d="M32.5 6.5C25.6044 6.5 18.9912 9.23928 14.1152 14.1152C9.23928 18.9912 6.5 25.6044 6.50001 32.5C6.50001 39.3956 9.23928 46.0088 14.1152 50.8848C18.9912 55.7607 25.6044 58.5 32.5 58.5C39.3956 58.5 46.0088 55.7607 50.8848 50.8848C55.7607 46.0088 58.5 39.3956 58.5 32.5C58.5 25.6044 55.7607 18.9912 50.8848 14.1152C46.0088 9.23927 39.3956 6.5 32.5 6.5V6.5ZM29.25 42.25C29.25 43.112 29.5924 43.9386 30.2019 44.5481C30.8114 45.1576 31.638 45.5 32.5 45.5C33.362 45.5 34.1886 45.1576 34.7981 44.5481C35.4076 43.9386 35.75 43.112 35.75 42.25L35.75 30.5955L39.9523 34.7977C40.5652 35.3898 41.3862 35.7173 42.2383 35.7099C43.0904 35.7025 43.9056 35.3607 44.5082 34.7582C45.1107 34.1556 45.4525 33.3404 45.4599 32.4883C45.4673 31.6362 45.1398 30.8152 44.5477 30.2022L34.7977 20.4523C34.1883 19.843 33.3618 19.5007 32.5 19.5007C31.6382 19.5007 30.8117 19.843 30.2023 20.4523L20.4523 30.2023C19.8602 30.8152 19.5327 31.6362 19.5401 32.4883C19.5475 33.3404 19.8893 34.1556 20.4918 34.7582C21.0944 35.3607 21.9096 35.7025 22.7617 35.7099C23.6138 35.7173 24.4348 35.3898 25.0478 34.7978L29.25 30.5955L29.25 42.25Z" fill="#FFB800"/>
</svg>
