<svg width="294" height="181" viewBox="0 0 294 181" fill="none" xmlns="http://www.w3.org/2000/svg">
<path opacity="0.71" d="M193.35 30.0011C192.798 30.0011 192.35 30.4489 192.35 31.0011C192.35 31.5534 192.798 32.0011 193.35 32.0011V30.0011ZM273.6 32.0011C274.152 32.0011 274.6 31.5534 274.6 31.0011C274.6 30.4489 274.152 30.0011 273.6 30.0011V32.0011ZM193.35 45.6741C192.798 45.6741 192.35 46.1219 192.35 46.6741C192.35 47.2264 192.798 47.6741 193.35 47.6741V45.6741ZM273.6 47.6741C274.152 47.6741 274.6 47.2264 274.6 46.6741C274.6 46.1219 274.152 45.6741 273.6 45.6741V47.6741ZM193.35 61.3471C192.798 61.3471 192.35 61.7948 192.35 62.3471C192.35 62.8993 192.798 63.3471 193.35 63.3471V61.3471ZM273.6 63.3471C274.152 63.3471 274.6 62.8993 274.6 62.3471C274.6 61.7948 274.152 61.3471 273.6 61.3471V63.3471ZM209.958 77.0201C209.405 77.0201 208.958 77.4678 208.958 78.0201C208.958 78.5723 209.405 79.0201 209.958 79.0201V77.0201ZM256.992 79.0201C257.544 79.0201 257.992 78.5723 257.992 78.0201C257.992 77.4678 257.544 77.0201 256.992 77.0201V79.0201ZM206.105 131.349C205.552 131.349 205.105 131.797 205.105 132.349C205.105 132.902 205.552 133.349 206.105 133.349V131.349ZM260.845 133.349C261.397 133.349 261.845 132.902 261.845 132.349C261.845 131.797 261.397 131.349 260.845 131.349V133.349ZM270.603 144.659H196.347V146.659H270.603V144.659ZM196.347 144.659C193.934 144.659 191.958 142.677 191.958 140.21H189.958C189.958 143.761 192.808 146.659 196.347 146.659V144.659ZM191.958 140.21V124.489H189.958V140.21H191.958ZM191.958 124.489C191.958 122.022 193.934 120.04 196.347 120.04V118.04C192.808 118.04 189.958 120.938 189.958 124.489H191.958ZM196.347 120.04H270.603V118.04H196.347V120.04ZM270.603 120.04C273.016 120.04 274.991 122.022 274.991 124.489H276.991C276.991 120.938 274.141 118.04 270.603 118.04V120.04ZM274.991 124.489V140.21H276.991V124.489H274.991ZM274.991 140.21C274.991 142.677 273.016 144.659 270.603 144.659V146.659C274.141 146.659 276.991 143.761 276.991 140.21H274.991ZM284.164 166.312H181.59V168.312H284.164V166.312ZM181.59 166.312C177.274 166.312 173.754 162.769 173.754 158.378H171.754C171.754 163.853 176.148 168.312 181.59 168.312V166.312ZM173.754 158.378V9.93402H171.754V158.378H173.754ZM173.754 9.93402C173.754 5.54303 177.274 2 181.59 2V0C176.148 0 171.754 4.45929 171.754 9.93402H173.754ZM181.59 2H284.164V0H181.59V2ZM284.164 2C288.48 2 292 5.54302 292 9.93402H294C294 4.4593 289.605 0 284.164 0V2ZM292 9.93402V158.378H294V9.93402H292ZM292 158.378C292 162.769 288.48 166.312 284.164 166.312V168.312C289.605 168.312 294 163.853 294 158.378H292ZM193.35 32.0011H273.6V30.0011H193.35V32.0011ZM193.35 47.6741H273.6V45.6741H193.35V47.6741ZM193.35 63.3471H273.6V61.3471H193.35V63.3471ZM209.958 79.0201H256.992V77.0201H209.958V79.0201ZM206.105 133.349H260.845V131.349H206.105V133.349Z" fill="#491919" fill-opacity="0.15"/>
<path d="M105.554 88.4704C102.232 83.7697 65.8259 87.798 59.9809 89.6795C54.1359 91.561 33.1415 128.099 33.1415 128.099H20.3839V178.968C20.3839 178.968 84.7625 181.031 99.5748 178.968C113.081 177.087 143.4 163.558 161.425 149.136C167.717 144.101 172.512 138.957 174.567 134.163C175.664 131.606 165.325 135.058 155.589 138.773C147.304 141.933 139.455 145.283 139.455 145.283C139.455 145.283 162.555 129.483 166.536 123.199C167.368 121.885 168.245 120.582 169.139 119.304C170.046 118.007 173.616 113.234 174.454 112.152C176.577 109.411 178.587 106.893 180.212 104.716C182.908 101.104 184.533 98.4296 183.835 97.2175C172.405 99.7412 102.632 111.98 102.632 111.98C102.632 111.98 78.3151 111.712 90.0081 108.889C101.701 106.067 108.876 93.1711 105.554 88.4704Z" fill="#491919" fill-opacity="0.15"/>
<path d="M208.236 136.79H98.8325C94.3961 136.79 90.7887 133.15 90.7887 128.651V61.3158C90.7887 56.8167 94.3961 53.1772 98.8325 53.1772H208.236C212.672 53.1772 216.279 56.8167 216.279 61.3158V128.651C216.279 133.15 212.672 136.79 208.236 136.79Z" fill="#26293F" fill-opacity="0.3" stroke="black"/>
<path d="M208.236 137.29H98.8325C94.1148 137.29 90.2887 133.421 90.2887 128.651V61.3158C90.2887 56.5457 94.1148 52.6772 98.8325 52.6772H208.236C212.953 52.6772 216.779 56.5457 216.779 61.3158V128.651C216.779 133.421 212.953 137.29 208.236 137.29Z" stroke="black" stroke-width="2" stroke-linecap="round" stroke-linejoin="round"/>
<path d="M104.639 68.438H115.536" stroke="black" stroke-width="2" stroke-linecap="round" stroke-linejoin="round"/>
<path d="M104.639 75.2461H130.148" stroke="black" stroke-width="2" stroke-linecap="round" stroke-linejoin="round"/>
<path d="M117.927 105.519H135.641" stroke="black" stroke-width="2" stroke-linecap="round" stroke-linejoin="round"/>
<path d="M144.677 105.519H162.391" stroke="black" stroke-width="2" stroke-linecap="round" stroke-linejoin="round"/>
<path d="M171.427 105.519H189.141" stroke="black" stroke-width="2" stroke-linecap="round" stroke-linejoin="round"/>
<path d="M91.2887 123.683V114.4H215.779V123.683H91.2887Z" fill="#56586B" stroke="black" stroke-width="2"/>
<path d="M204.486 72.6047C204.486 74.9574 202.603 76.8451 200.303 76.8451C198.003 76.8451 196.12 74.9574 196.12 72.6047C196.12 70.2519 198.003 68.3643 200.303 68.3643C202.603 68.3643 204.486 70.2519 204.486 72.6047Z" fill="#F66E62" stroke="black" stroke-width="2"/>
<path d="M7.90964 180H20.9297C24.7468 180 27.8393 176.874 27.8393 173.014V121.907C27.8393 118.05 24.7468 114.92 20.9297 114.92H7.90964C4.09249 114.92 1 118.05 1 121.907V173.014C1 176.874 4.09249 180 7.90964 180Z" stroke="black" stroke-width="2" stroke-linecap="round" stroke-linejoin="round"/>
<path d="M83.2595 86.5565C83.2595 86.5565 108.196 85.0791 112.16 86.3726C116.126 87.6691 115.392 91.9447 113.114 96.175C110.832 100.405 103.458 107.747 96.1066 108.947C88.7556 110.147 85.7437 110.416 85.7437 110.416" fill="#491919" fill-opacity="0.15"/>
<path d="M168.671 137.221C154.414 153.443 121.556 167.849 107.03 171.431C92.5044 175.013 27.8395 171.431 27.8395 171.431V120.562H40.5971C40.5971 120.562 61.3201 81.6508 67.4364 82.1423C77.6115 82.9624 99.6049 83.3333 114.17 84.0509C119.878 84.3313 109.407 101.421 97.586 103.62C85.7647 105.818 82.9794 105.516 82.9794 105.516L80.7219 113.398C80.7219 113.398 92.9457 121.898 86.3015 147.46" stroke="black" stroke-width="2" stroke-linecap="round" stroke-linejoin="round"/>
<path d="M132.037 73.1013C130.352 73.1013 109.716 61.2938 109.716 50.5326V27.9638L132.037 17.7544L154.359 27.9638V50.5326C154.359 61.7039 133.317 73.1013 132.037 73.1013Z" fill="#C4C4C4" fill-opacity="0.5"/>
<path d="M132.037 73.1013C130.352 73.1013 109.716 61.2938 109.716 50.5326V27.9638L132.037 17.7544L154.359 27.9638V50.5326C154.359 61.7039 133.317 73.1013 132.037 73.1013Z" stroke="#656C7F" stroke-opacity="0.3" stroke-width="2" stroke-linecap="round" stroke-linejoin="round"/>
<path d="M124.582 64.7248C123.407 64.7248 109.018 56.4904 109.018 48.9886V33.2492L124.582 26.1304L140.146 33.2492V48.9886C140.146 56.7768 125.473 64.7248 124.582 64.7248Z" fill="#868686"/>
<path d="M132.037 64.7248C130.862 64.7248 116.473 56.4904 116.473 48.9886V33.2492L132.037 26.1304L147.601 33.2492V48.9886C147.601 56.7768 132.929 64.7248 132.037 64.7248Z" stroke="black" stroke-opacity="0.25" stroke-width="2" stroke-linecap="round" stroke-linejoin="round"/>
</svg>
