<svg width="290" height="70" viewBox="0 0 290 70" fill="none" xmlns="http://www.w3.org/2000/svg">
<path d="M60.1255 47.9424V22.0575C60.1255 21.6702 60.0226 21.2897 59.8274 20.9551C59.6322 20.6205 59.3516 20.3438 59.0144 20.1532L36.0456 7.17084C35.7172 6.98523 35.3464 6.8877 34.9692 6.8877C34.592 6.8877 34.2212 6.98523 33.8929 7.17084L10.9241 20.1532C10.5869 20.3438 10.3063 20.6205 10.1111 20.9551C9.91586 21.2897 9.81299 21.6702 9.81299 22.0575V47.9424C9.81299 48.3298 9.91586 48.7102 10.1111 49.0448C10.3063 49.3794 10.5869 49.6561 10.9241 49.8467L33.8929 62.8291C34.2212 63.0147 34.592 63.1122 34.9692 63.1122C35.3464 63.1122 35.7172 63.0147 36.0456 62.8291L59.0144 49.8467C59.3516 49.6561 59.6322 49.3794 59.8274 49.0448C60.0226 48.7102 60.1255 48.3298 60.1255 47.9424Z" fill="#FFB800" stroke="black" stroke-width="3" stroke-linecap="round" stroke-linejoin="round"/>
<path d="M59.826 20.9522L35.2595 34.9995L10.1145 20.9492" stroke="black" stroke-width="3" stroke-linecap="round" stroke-linejoin="round"/>
<path d="M48.4044 40.6082V27.4832L23.0352 13.3076" stroke="black" stroke-width="3" stroke-linecap="round" stroke-linejoin="round"/>
<path d="M35.2596 35L34.9692 63.1122" stroke="black" stroke-width="3" stroke-linecap="round" stroke-linejoin="round"/>
<path d="M100.16 46V28.864H113.72V46H110.096V31.888H103.784V46H100.16ZM125.051 32.656C126.523 32.656 127.715 33.232 128.627 34.384C129.539 35.52 129.995 37.2 129.995 39.424C129.995 41.648 129.523 43.344 128.579 44.512C127.635 45.664 126.427 46.24 124.955 46.24C124.011 46.24 123.259 46.072 122.699 45.736C122.139 45.384 121.683 44.992 121.331 44.56H121.139C121.267 45.232 121.331 45.872 121.331 46.48V51.76H117.755V32.896H120.659L121.163 34.6H121.331C121.683 34.072 122.155 33.616 122.747 33.232C123.339 32.848 124.107 32.656 125.051 32.656ZM123.899 35.512C122.971 35.512 122.315 35.8 121.931 36.376C121.563 36.952 121.363 37.832 121.331 39.016V39.4C121.331 40.664 121.515 41.64 121.883 42.328C122.267 43 122.955 43.336 123.947 43.336C124.763 43.336 125.363 43 125.747 42.328C126.147 41.64 126.347 40.656 126.347 39.376C126.347 36.8 125.531 35.512 123.899 35.512ZM136.398 38.08C136.398 38.352 136.382 38.688 136.35 39.088C136.334 39.488 136.31 39.896 136.278 40.312C136.262 40.728 136.238 41.096 136.206 41.416C136.174 41.736 136.15 41.96 136.134 42.088L142.182 32.896H146.478V46H143.022V40.768C143.022 40.336 143.038 39.864 143.07 39.352C143.102 38.824 143.134 38.336 143.166 37.888C143.214 37.424 143.246 37.072 143.262 36.832L137.238 46H132.942V32.896H136.398V38.08ZM155.616 32.656C157.424 32.656 158.856 33.176 159.912 34.216C160.968 35.24 161.496 36.704 161.496 38.608V40.336H153.048C153.08 41.344 153.376 42.136 153.936 42.712C154.512 43.288 155.304 43.576 156.312 43.576C157.16 43.576 157.928 43.496 158.616 43.336C159.304 43.16 160.016 42.896 160.752 42.544V45.304C160.112 45.624 159.432 45.856 158.712 46C158.008 46.16 157.152 46.24 156.144 46.24C154.832 46.24 153.672 46 152.664 45.52C151.656 45.024 150.864 44.28 150.288 43.288C149.712 42.296 149.424 41.048 149.424 39.544C149.424 38.008 149.68 36.736 150.192 35.728C150.72 34.704 151.448 33.936 152.376 33.424C153.304 32.912 154.384 32.656 155.616 32.656ZM155.64 35.2C154.952 35.2 154.376 35.424 153.912 35.872C153.464 36.32 153.2 37.016 153.12 37.96H158.136C158.12 37.16 157.912 36.504 157.512 35.992C157.112 35.464 156.488 35.2 155.64 35.2ZM151.416 29.536C151.416 28.976 151.576 28.576 151.896 28.336C152.216 28.08 152.6 27.952 153.048 27.952C153.496 27.952 153.88 28.08 154.2 28.336C154.536 28.576 154.704 28.976 154.704 29.536C154.704 30.064 154.536 30.456 154.2 30.712C153.88 30.968 153.496 31.096 153.048 31.096C152.6 31.096 152.216 30.968 151.896 30.712C151.576 30.456 151.416 30.064 151.416 29.536ZM156.144 29.536C156.144 28.976 156.304 28.576 156.624 28.336C156.944 28.08 157.336 27.952 157.8 27.952C158.248 27.952 158.632 28.08 158.952 28.336C159.288 28.576 159.456 28.976 159.456 29.536C159.456 30.064 159.288 30.456 158.952 30.712C158.632 30.968 158.248 31.096 157.8 31.096C157.336 31.096 156.944 30.968 156.624 30.712C156.304 30.456 156.144 30.064 156.144 29.536ZM180.907 32.896V46H177.571V39.568C177.571 38.928 177.579 38.304 177.595 37.696C177.627 37.088 177.667 36.528 177.715 36.016H177.643L174.019 46H171.331L167.659 35.992H167.563C167.627 36.52 167.667 37.088 167.683 37.696C167.715 38.288 167.731 38.944 167.731 39.664V46H164.395V32.896H169.459L172.723 41.776L176.035 32.896H180.907ZM193.237 32.896H197.173L191.989 39.184L197.629 46H193.573L188.221 39.352V46H184.645V32.896H188.221V39.256L193.237 32.896ZM204.881 32.632C206.641 32.632 207.985 33.016 208.913 33.784C209.857 34.536 210.329 35.696 210.329 37.264V46H207.833L207.137 44.224H207.041C206.481 44.928 205.889 45.44 205.265 45.76C204.641 46.08 203.785 46.24 202.697 46.24C201.529 46.24 200.561 45.904 199.793 45.232C199.025 44.544 198.641 43.496 198.641 42.088C198.641 40.696 199.129 39.672 200.105 39.016C201.081 38.344 202.545 37.976 204.497 37.912L206.777 37.84V37.264C206.777 36.576 206.593 36.072 206.225 35.752C205.873 35.432 205.377 35.272 204.737 35.272C204.097 35.272 203.473 35.368 202.865 35.56C202.257 35.736 201.649 35.96 201.041 36.232L199.865 33.808C200.569 33.44 201.345 33.152 202.193 32.944C203.057 32.736 203.953 32.632 204.881 32.632ZM205.385 39.976C204.233 40.008 203.433 40.216 202.985 40.6C202.537 40.984 202.313 41.488 202.313 42.112C202.313 42.656 202.473 43.048 202.793 43.288C203.113 43.512 203.529 43.624 204.041 43.624C204.809 43.624 205.457 43.4 205.985 42.952C206.513 42.488 206.777 41.84 206.777 41.008V39.928L205.385 39.976ZM214.325 40.696L213.989 29.2H217.277L216.917 40.696H214.325ZM215.693 46.168C215.117 46.168 214.645 45.992 214.277 45.64C213.925 45.288 213.749 44.864 213.749 44.368C213.749 43.856 213.925 43.424 214.277 43.072C214.645 42.72 215.117 42.544 215.693 42.544C216.237 42.544 216.685 42.72 217.037 43.072C217.405 43.424 217.589 43.856 217.589 44.368C217.589 44.864 217.405 45.288 217.037 45.64C216.685 45.992 216.237 46.168 215.693 46.168Z" fill="black"/>
</svg>
