<svg width="21" height="20" viewBox="0 0 21 20" fill="none" xmlns="http://www.w3.org/2000/svg">
<path d="M15.863 20H15.8335C11.7912 19.9005 7.93357 18.2863 5.02488 15.4772C2.21489 12.5709 0.599879 8.71455 0.500117 4.67309C0.494164 4.10694 0.716436 3.56223 1.11685 3.16197L3.97264 0.308102C4.38354 -0.102701 5.04961 -0.102701 5.46051 0.308102L9.66949 4.51735C10.0803 4.92827 10.0803 5.59439 9.66949 6.00531L7.99011 7.68165C8.30158 8.84542 8.87533 9.92243 9.66738 10.8302C10.5734 11.6225 11.649 12.1967 12.8115 12.5086L14.4951 10.8312C14.906 10.4204 15.572 10.4204 15.9829 10.8312L20.1919 15.0405C20.6027 15.4514 20.6027 16.1175 20.1919 16.5284L17.3361 19.3833C16.9467 19.7768 16.4165 19.9988 15.863 20ZM4.71447 2.54111H4.70921L2.60472 4.64994C2.69053 8.1422 4.08452 11.4749 6.51065 13.9881C9.02386 16.4136 12.3557 17.8075 15.8472 17.8943L17.9591 15.7844L15.2316 13.0642L13.8711 14.4238C13.6765 14.6206 13.4113 14.7316 13.1345 14.7321C13.0606 14.7322 12.9869 14.7244 12.9146 14.709C11.1612 14.3211 9.5331 13.4994 8.17951 12.3192C6.99937 10.9655 6.17773 9.33732 5.78986 7.58378C5.71669 7.23522 5.82479 6.8733 6.07713 6.62197L7.43663 5.26133L4.71447 2.54111Z" fill="black"/>
</svg>
