<svg width="258" height="499" viewBox="0 0 258 499" fill="none" xmlns="http://www.w3.org/2000/svg">
<path d="M122.599 197.381L112.476 319.946" stroke="#19141E" stroke-width="16" stroke-linecap="round"/>
<path d="M112.476 331.016L116.685 471.911" stroke="#19141E" stroke-width="16" stroke-linecap="round"/>
<path d="M162.836 196.489L163.394 318.742" stroke="#19141E" stroke-width="16" stroke-linecap="round"/>
<path d="M163.394 323.971L178.415 475.874" stroke="#19141E" stroke-width="16" stroke-linecap="round"/>
<path fill-rule="evenodd" clip-rule="evenodd" d="M167.948 192.232C167.948 196.991 164.402 200.885 160.068 200.885H124.565C120.231 200.885 116.685 196.991 116.685 192.232C116.685 187.473 120.231 183.579 124.565 183.579H160.068C164.402 183.579 167.948 187.473 167.948 192.232ZM160.671 306.076C160.646 306.076 160.621 306.076 160.595 306.076C154.656 306.076 149.842 312.835 149.842 321.172C149.842 329.509 154.656 336.268 160.595 336.268L166.509 336.268V336.262C172.312 336.044 176.969 329.372 176.969 321.172C176.969 312.972 172.312 306.299 166.509 306.081V306.076H166.291C166.266 306.076 166.241 306.076 166.216 306.076C166.19 306.076 166.165 306.076 166.14 306.076H160.671ZM110.318 306.076L110.285 306.076L110.242 306.076C104.303 306.076 99.4883 312.835 99.4883 321.172C99.4883 329.51 104.303 336.268 110.242 336.268L116.156 336.268V336.262C121.959 336.044 126.616 329.372 126.616 321.172C126.616 312.973 121.959 306.3 116.156 306.081V306.076H115.938C115.913 306.076 115.887 306.076 115.862 306.076C115.837 306.076 115.811 306.076 115.786 306.076H110.318ZM145.281 486.897H189.87L182.825 467.084L145.281 486.897ZM125.38 486.897H80.7902L118.335 467.084L125.38 486.897Z" fill="url(#paint0_linear)"/>
<path opacity="0.403041" fill-rule="evenodd" clip-rule="evenodd" d="M116.306 336.174C122.109 335.956 126.766 329.284 126.766 321.084C126.766 312.885 122.109 306.212 116.306 305.993V305.988H116.088C116.063 305.988 116.038 305.988 116.012 305.988C115.987 305.988 115.962 305.988 115.936 305.988H110.468C110.443 305.988 110.418 305.988 110.392 305.988C104.453 305.988 99.6384 312.747 99.6384 321.084C99.6384 329.421 104.453 336.18 110.392 336.18L116.306 336.18V336.174ZM123.065 321.084C123.065 325.965 120.657 329.922 117.688 329.922C114.718 329.922 112.311 325.965 112.311 321.084C112.311 316.203 114.718 312.246 117.688 312.246C120.657 312.246 123.065 316.203 123.065 321.084ZM166.566 336.235C172.369 336.017 177.026 329.344 177.026 321.144C177.026 312.945 172.369 306.272 166.566 306.054V306.048H166.348C166.323 306.048 166.298 306.048 166.273 306.048C166.247 306.048 166.222 306.048 166.197 306.048H160.728C160.703 306.048 160.678 306.048 160.652 306.048C154.713 306.048 149.898 312.807 149.898 321.144C149.898 329.482 154.712 336.24 160.652 336.24L166.566 336.24V336.235ZM173.325 321.145C173.325 326.026 170.917 329.983 167.948 329.983C164.978 329.983 162.571 326.026 162.571 321.145C162.571 316.264 164.978 312.308 167.948 312.308C170.917 312.308 173.325 316.264 173.325 321.145Z" fill="black"/>
<path opacity="0.602888" fill-rule="evenodd" clip-rule="evenodd" d="M173.312 321.204C173.312 326.084 170.905 330.041 167.936 330.041C164.966 330.041 162.559 326.084 162.559 321.204C162.559 316.323 164.966 312.366 167.936 312.366C170.905 312.366 173.312 316.323 173.312 321.204Z" fill="black"/>
<path opacity="0.603864" fill-rule="evenodd" clip-rule="evenodd" d="M123.025 321.082C123.025 325.962 120.617 329.919 117.648 329.919C114.678 329.919 112.271 325.962 112.271 321.082C112.271 316.2 114.678 312.244 117.648 312.244C120.617 312.244 123.025 316.2 123.025 321.082Z" fill="black"/>
<path opacity="0.39588" fill-rule="evenodd" clip-rule="evenodd" d="M145.281 487.031H189.87L182.825 467.217L145.281 487.031Z" fill="black"/>
<path opacity="0.39588" fill-rule="evenodd" clip-rule="evenodd" d="M80.7903 487.031H125.38L118.335 467.217L80.7903 487.031Z" fill="black"/>
<path d="M52.6046 245.243L65.5995 136.135" stroke="#19141E" stroke-width="27" stroke-linecap="round"/>
<path fill-rule="evenodd" clip-rule="evenodd" d="M173.607 231.778H92.5715L80.2143 216.543H185.964L173.607 231.778Z" fill="#19141E"/>
<path d="M221.801 241.616L208.102 132.62" stroke="#19141E" stroke-width="27" stroke-linecap="round"/>
<path fill-rule="evenodd" clip-rule="evenodd" d="M58.845 194.717V163.954C58.2052 163.812 57.5653 163.637 56.9269 163.428C45.1131 159.56 38.2749 145.456 41.653 131.927C45.0304 118.398 57.3463 110.566 69.1601 114.435C69.6497 114.595 70.1307 114.773 70.6028 114.968C73.7106 113.06 77.2555 111.976 81.0107 111.976H185.167C188.55 111.976 191.761 112.856 194.637 114.424C198.032 112.022 202.032 110.636 206.316 110.636C218.603 110.636 228.564 122.043 228.564 136.114C228.564 149.795 219.148 160.958 207.333 161.567V194.717C207.333 208.678 197.359 220.101 185.167 220.101H81.0107C68.8194 220.101 58.845 208.678 58.845 194.717ZM31.1617 384.808C30.9564 378.84 32.6886 373.299 35.7164 368.981C26.7653 363.227 20.6962 352.228 20.7331 339.7L20.9352 270.693C20.9888 252.313 34.1647 237.326 50.2143 237.388C66.2634 237.45 79.351 252.538 79.2974 270.918L79.0952 339.925C79.0622 351.144 74.1395 361.1 66.6584 367.14C70.0391 371.035 72.2703 376.255 72.6512 382.064C72.7087 382.94 72.7243 383.81 72.7003 384.668C72.5908 388.557 68.2417 390.019 66.3045 386.822C64.0953 383.178 61.0546 380.975 57.7715 381.124C51.4717 381.408 46.6624 390.246 47.0276 400.866L47.029 400.9L47.0296 400.914L47.0304 400.934C47.1455 404.099 44.2404 406.219 41.8246 404.677C35.7058 400.77 31.4577 393.414 31.1617 384.808ZM227.543 369.707C237.725 365.184 245.312 354.263 246.175 341.019L250.659 272.203C251.853 253.874 239.735 237.758 223.73 236.391C207.725 235.023 193.652 248.901 192.458 267.23L187.975 336.046C187.225 347.554 191.722 358.189 199.135 364.849C194.007 369.018 190.568 375.773 190.332 383.393C190.304 384.271 190.319 385.14 190.373 385.997C190.616 389.878 195.011 391.143 196.837 387.862C198.92 384.12 201.882 381.782 205.167 381.782C211.472 381.782 216.582 390.396 216.582 401.025V401.093C216.575 404.26 219.551 406.248 221.913 404.597C227.892 400.418 231.883 392.875 231.883 384.263C231.883 378.78 230.264 373.731 227.543 369.707ZM152.171 231.699V246.408H114.007V231.699H152.171Z" fill="url(#paint1_linear)"/>
<path opacity="0.394764" fill-rule="evenodd" clip-rule="evenodd" d="M190.332 383.393C190.305 384.271 190.319 385.141 190.373 385.997C190.616 389.878 195.011 391.143 196.837 387.862C198.92 384.12 201.882 381.782 205.167 381.782C211.472 381.782 216.582 390.396 216.582 401.025V401.093C216.575 404.26 219.551 406.248 221.913 404.597C227.892 400.418 231.883 392.876 231.883 384.263C231.883 370.878 222.232 360.073 210.458 360.478C199.611 360.851 190.717 370.973 190.332 383.393ZM88.3285 164.179C88.3285 180.486 98.6937 194.019 112.291 196.615C112.487 196.577 112.677 196.538 112.872 196.494C126.185 193.641 136.26 180.256 136.26 164.179C136.26 148.101 126.185 134.716 112.872 131.863C112.677 131.819 112.487 131.78 112.291 131.742C98.6937 134.338 88.3285 147.871 88.3285 164.179ZM133.809 164.222C133.809 174.744 126.361 183.272 117.174 183.272C107.986 183.272 100.539 174.744 100.539 164.222C100.539 153.701 107.986 145.172 117.174 145.172C126.361 145.172 133.809 153.701 133.809 164.222ZM228.682 136.116C228.682 122.045 218.721 110.638 206.433 110.638C194.146 110.638 184.185 122.045 184.185 136.116C184.185 150.188 194.146 161.595 206.433 161.595C218.721 161.595 228.682 150.188 228.682 136.116ZM223.314 131.394C223.314 138.22 218.481 143.754 212.521 143.754C206.56 143.754 201.728 138.22 201.728 131.394C201.728 124.567 206.56 119.033 212.521 119.033C218.481 119.033 223.314 124.567 223.314 131.394ZM70.6427 115.037C70.1706 114.842 69.6896 114.664 69.2 114.504C57.3862 110.635 45.0703 118.466 41.6928 131.995C38.3148 145.525 45.1529 159.628 56.9668 163.497C57.6052 163.706 58.2451 163.881 58.8849 164.023V137.429C58.8849 127.768 63.6609 119.323 70.6427 115.037ZM35.7174 368.856C32.6895 373.175 30.9574 378.716 31.1627 384.683C31.4586 393.29 35.7067 400.646 41.8255 404.552C44.2414 406.095 47.1464 403.975 47.0313 400.81C47.0302 400.787 47.0297 400.765 47.0285 400.742C46.6633 390.122 51.4726 381.284 57.7724 380.999C61.0555 380.851 64.0962 383.053 66.3054 386.698C68.2426 389.895 72.5918 388.432 72.7012 384.543C72.7252 383.685 72.7096 382.816 72.6521 381.939C72.2712 376.131 70.0401 370.911 66.6594 367.016C74.1404 360.976 79.0631 351.02 79.0961 339.8L79.2983 270.793C79.3519 252.413 66.2643 237.325 50.2152 237.263C34.1656 237.202 20.9898 252.189 20.9362 270.569L20.734 339.576C20.6971 352.104 26.7662 363.103 35.7174 368.856ZM151.5 190.562C151.5 186.949 148.942 184.019 145.787 184.019C142.631 184.019 140.073 186.949 140.073 190.562C140.073 194.175 142.631 197.105 145.787 197.105C148.942 197.105 151.5 194.175 151.5 190.562ZM168.013 190.562C168.013 186.949 165.455 184.019 162.3 184.019C159.145 184.019 156.586 186.949 156.586 190.562C156.586 194.175 159.145 197.105 162.3 197.105C165.455 197.105 168.013 194.175 168.013 190.562ZM243.293 277.315C243.537 273.712 241.185 270.565 238.038 270.286C234.892 270.007 232.144 272.701 231.901 276.304C231.656 279.907 234.01 283.053 237.155 283.333C240.302 283.612 243.049 280.917 243.293 277.315ZM242.072 295.364C242.316 291.761 239.963 288.615 236.817 288.335C233.671 288.056 230.923 290.751 230.679 294.353C230.435 297.956 232.788 301.103 235.934 301.382C239.081 301.661 241.828 298.967 242.072 295.364ZM240.821 313.85C241.065 310.248 238.712 307.101 235.566 306.821C232.42 306.542 229.672 309.237 229.429 312.839C229.185 316.442 231.538 319.589 234.683 319.868C237.83 320.147 240.577 317.453 240.821 313.85ZM152.454 246.216V231.507H113.922V246.216H152.454Z" fill="black"/>
<path fill-rule="evenodd" clip-rule="evenodd" d="M112.425 196.657C98.8278 194.061 88.4626 180.528 88.4626 164.221C88.4626 147.913 98.8278 134.381 112.425 131.784C110.884 131.49 109.299 131.336 107.684 131.336C91.825 131.336 78.9691 146.058 78.9691 164.221C78.9691 182.383 91.825 197.105 107.684 197.105C109.299 197.105 110.884 196.951 112.425 196.657Z" fill="#19141E"/>
<path d="M100.703 66.0271H117.716" stroke="#19141E" stroke-width="5" stroke-linecap="round"/>
<path d="M152.635 39.457C155.87 39.457 158.517 42.4877 158.517 46.1925" stroke="white" stroke-width="5" stroke-linecap="round"/>
<path d="M177.85 66.0271H156.924" stroke="#19141E" stroke-width="5" stroke-linecap="round"/>
<path fill-rule="evenodd" clip-rule="evenodd" d="M101.486 102.004C98.3971 102.256 95.9591 105.207 95.9591 108.808V111.875H175.395V108.808C175.395 105.207 172.958 102.256 169.868 102.004V100.79C169.868 96.6377 167.219 93.1602 163.761 92.4634V42.3888C163.761 37.7165 160.423 33.894 156.344 33.894H115.011C110.931 33.894 107.593 37.7165 107.593 42.3888V92.4634C104.135 93.1602 101.486 96.6378 101.486 100.79V102.004ZM88.8768 66.028C88.8768 70.5859 92.1029 74.2811 96.0829 74.2811C100.063 74.2811 103.29 70.5859 103.29 66.028C103.29 61.4702 100.063 57.7757 96.0829 57.7757C92.1029 57.7757 88.8768 61.4702 88.8768 66.028ZM177.637 57.7757C181.617 57.7757 184.844 61.4702 184.844 66.028C184.844 70.5859 181.617 74.2811 177.637 74.2811C173.657 74.2811 170.431 70.5859 170.431 66.028C170.431 61.4702 173.657 57.7757 177.637 57.7757Z" fill="url(#paint2_linear)"/>
<path opacity="0.395926" fill-rule="evenodd" clip-rule="evenodd" d="M169.868 102.004V99.8975C169.544 96.0769 166.546 92.3365 162.487 92.3365H108.868C104.808 92.3365 101.936 95.7896 101.486 99.6221V102.004C98.3971 102.257 95.9591 105.207 95.9591 108.809V111.875H175.395V108.809C175.395 105.207 172.958 102.257 169.868 102.004ZM88.8768 66.0283C88.8768 70.5861 92.1029 74.2813 96.0829 74.2813C100.063 74.2813 103.29 70.5861 103.29 66.0283C103.29 61.4704 100.063 57.7759 96.0829 57.7759C92.1029 57.7759 88.8768 61.4704 88.8768 66.0283ZM184.844 66.0283C184.844 61.4704 181.617 57.7759 177.637 57.7759C173.657 57.7759 170.431 61.4704 170.431 66.0283C170.431 70.5861 173.657 74.2813 177.637 74.2813C181.617 74.2813 184.844 70.5861 184.844 66.0283Z" fill="black"/>
<path d="M169.397 102.206H101.653" stroke="#19141E" stroke-width="5"/>
<path d="M152.199 79.4866H107.593" stroke="#19141E" stroke-width="7"/>
<path fill-rule="evenodd" clip-rule="evenodd" d="M140.541 55.204C143.685 58.1675 144.136 63.489 141.548 67.0895C138.96 70.69 134.313 71.2061 131.169 68.2425C128.025 65.279 127.574 59.9575 130.162 56.357C132.75 52.7565 137.397 52.2404 140.541 55.204Z" fill="white"/>
<path fill-rule="evenodd" clip-rule="evenodd" d="M136.601 58.8188C138.045 60.1803 138.252 62.6246 137.063 64.279C135.874 65.9328 133.74 66.1701 132.296 64.8086C130.851 63.447 130.644 61.0028 131.833 59.3483C133.022 57.6945 135.157 57.4573 136.601 58.8188Z" fill="#19141E"/>
<path fill-rule="evenodd" clip-rule="evenodd" d="M121.146 55.204C124.29 58.1675 124.741 63.489 122.153 67.0895C119.565 70.69 114.918 71.2061 111.774 68.2425C108.63 65.279 108.179 59.9575 110.767 56.357C113.355 52.7565 118.002 52.2404 121.146 55.204Z" fill="white"/>
<path fill-rule="evenodd" clip-rule="evenodd" d="M117.206 58.8188C118.65 60.1803 118.857 62.6246 117.668 64.279C116.48 65.9328 114.345 66.1701 112.901 64.8086C111.456 63.447 111.249 61.0028 112.438 59.3483C113.627 57.6945 115.762 57.4573 117.206 58.8188Z" fill="#19141E"/>
<defs>
<linearGradient id="paint0_linear" x1="189.87" y1="335.238" x2="80.7902" y2="335.238" gradientUnits="userSpaceOnUse">
<stop stop-color="#16B2E3"/>
<stop offset="0.47" stop-color="#30C7EC"/>
<stop offset="1" stop-color="#46AEF7"/>
</linearGradient>
<linearGradient id="paint1_linear" x1="250.74" y1="257.914" x2="20.7329" y2="257.914" gradientUnits="userSpaceOnUse">
<stop stop-color="#16B2E3"/>
<stop offset="0.47" stop-color="#30C7EC"/>
<stop offset="1" stop-color="#46AEF7"/>
</linearGradient>
<linearGradient id="paint2_linear" x1="184.844" y1="72.8845" x2="88.8768" y2="72.8845" gradientUnits="userSpaceOnUse">
<stop stop-color="#16B2E3"/>
<stop offset="0.47" stop-color="#30C7EC"/>
<stop offset="1" stop-color="#46AEF7"/>
</linearGradient>
</defs>
</svg>
